<?xml version="1.0" encoding="UTF-8"?>
<svg viewBox="0 0 781 313" version="1.1" xmlns="http://www.w3.org/2000/svg" width="781" height="313">

<path d="M0 0 C8.55398382 4.3781169 14.78474604 10.93597549 18.0234375 20.03515625 C20.18302728 29.52968409 19.75882624 39.48873062 14.68359375 47.9375 C9.47780524 55.23075816 3.37006581 60.50401818 -5.31640625 62.9375 C-13.90469856 63.99577299 -20.22908121 63.37814995 -27.42578125 58.4453125 C-29.31640625 56.9375 -29.31640625 56.9375 -31.31640625 54.9375 C-31.64640625 61.5375 -31.97640625 68.1375 -32.31640625 74.9375 C57.44359375 74.9375 147.20359375 74.9375 239.68359375 74.9375 C239.68359375 77.5775 239.68359375 80.2175 239.68359375 82.9375 C149.92359375 82.9375 60.16359375 82.9375 -32.31640625 82.9375 C-32.31640625 86.5675 -32.31640625 90.1975 -32.31640625 93.9375 C-36.27640625 93.9375 -40.23640625 93.9375 -44.31640625 93.9375 C-44.31640625 90.3075 -44.31640625 86.6775 -44.31640625 82.9375 C-128.13640625 82.9375 -211.95640625 82.9375 -298.31640625 82.9375 C-298.31640625 80.2975 -298.31640625 77.6575 -298.31640625 74.9375 C-214.16640625 74.9375 -130.01640625 74.9375 -43.31640625 74.9375 C-43.31640625 50.1875 -43.31640625 25.4375 -43.31640625 -0.0625 C-39.68640625 -0.0625 -36.05640625 -0.0625 -32.31640625 -0.0625 C-31.98640625 2.2475 -31.65640625 4.5575 -31.31640625 6.9375 C-30.8575 6.52757812 -30.39859375 6.11765625 -29.92578125 5.6953125 C-29.00539063 4.88707031 -29.00539063 4.88707031 -28.06640625 4.0625 C-27.463125 3.52882812 -26.85984375 2.99515625 -26.23828125 2.4453125 C-19.2263315 -3.05593263 -8.25546497 -2.64486039 0 0 Z " fill="#EC1D15" transform="translate(532.31640625,145.0625)"/>
<path d="M0 0 C4.01475887 2.20811738 8.41434555 5.2036911 10.5 9.375 C10.7734375 11.44140625 10.7734375 11.44140625 10.875 13.9375 C10.92398438 14.74316406 10.97296875 15.54882812 11.0234375 16.37890625 C9.51007836 25.04119328 2.57627254 32.84632072 -2.390625 39.88867188 C-5.23882799 44.04348798 -7.20239404 47.19169628 -7.5 52.375 C-6.68660156 52.46136719 -5.87320313 52.54773438 -5.03515625 52.63671875 C17.48488444 55.39789359 36.13953555 63.82527742 53.5 78.375 C54.35464844 79.0659375 55.20929688 79.756875 56.08984375 80.46875 C62.17812062 85.57439316 67.68963539 91.0284989 69.1875 99.0625 C68.1523818 104.04988768 65.76855819 106.71139066 61.625 109.75 C58.22770994 110.74920296 56.04875796 110.90731369 52.5 110.375 C48.38155559 107.65807945 45.21032144 104.25183942 42.1171875 100.43359375 C31.97206517 88.13624244 15.46157002 79.83002969 0.4375 75.3125 C-0.24022461 75.10842529 -0.91794922 74.90435059 -1.61621094 74.6940918 C-6.40049534 73.38601798 -10.58963846 73.03562296 -15.5 73.375 C-17.48957782 75.40990467 -17.48957782 75.40990467 -18.5 78.375 C-19.06199597 79.64605631 -19.62450443 80.91688613 -20.1875 82.1875 C-20.620625 83.239375 -21.05375 84.29125 -21.5 85.375 C-22.14324219 85.38917969 -22.78648438 85.40335937 -23.44921875 85.41796875 C-33.67077899 85.95748049 -42.55055733 88.87972368 -50.5 95.375 C-51.16 95.375 -51.82 95.375 -52.5 95.375 C-51 84.875 -51 84.875 -49.5 74.375 C-57.70270208 76.13578945 -65.01503214 78.58728968 -72.5 82.375 C-73.27085938 82.75527344 -74.04171875 83.13554688 -74.8359375 83.52734375 C-88.97108139 90.89249767 -101.09659717 102.93767471 -109.5 116.375 C-110.09554687 117.31085938 -110.69109375 118.24671875 -111.3046875 119.2109375 C-120.34478467 133.99324232 -124.58306578 149.56385325 -125.09375 166.86328125 C-125.2278125 167.69214844 -125.361875 168.52101562 -125.5 169.375 C-126.985 170.365 -126.985 170.365 -128.5 171.375 C-129.26071875 138.7616216 -122.87341876 111.18139348 -100.02197266 86.96386719 C-99.51972168 86.43954102 -99.0174707 85.91521484 -98.5 85.375 C-98.03255371 84.88161133 -97.56510742 84.38822266 -97.08349609 83.87988281 C-84.51572721 70.85550716 -68.69210779 62.93038926 -52.03515625 56.41015625 C-43.142005 52.55148914 -40.74762255 43.7979433 -37.1472168 35.43701172 C-31.76596216 22.97470243 -24.02032497 6.61642713 -11.33984375 0.00390625 C-7.35755039 -1.35734477 -4.00221772 -1.00055443 0 0 Z " fill="#063E77" transform="translate(141.5,21.625)"/>
<path d="M0 0 C0.66 0 1.32 0 2 0 C2.35061777 8.89530277 1.97233848 16.58050044 -1 25 C-1.29003906 25.83015625 -1.58007812 26.6603125 -1.87890625 27.515625 C-4.67169123 34.94747122 -8.42812205 41.91775032 -12.65625 48.62890625 C-14.38200877 51.6740678 -14.52430158 53.55458964 -14 57 C-10.63746906 60.43186148 -6.34558724 61.1335111 -1.8125 62.125 C-1.09513672 62.29386719 -0.37777344 62.46273437 0.36132812 62.63671875 C10.85731449 65.02345155 21.27222986 65.23576324 32 65.25 C32.732117 65.25200409 33.46423401 65.25400818 34.21853638 65.256073 C51.56051391 65.62787377 51.56051391 65.62787377 68 61 C69.99960012 60.960008 72.00047242 60.95653201 74 61 C65.24302318 71.03775915 46.58094303 73.51739729 34 75 C25.14490461 75.47716576 16.71962542 75.14601786 8 73.5 C-15.04934027 69.18776832 -32.49151099 73.96458043 -52.3125 85.6875 C-76.58392638 100.04156936 -105.71791375 103.83620092 -133 97 C-134.08023438 96.76023437 -135.16046875 96.52046875 -136.2734375 96.2734375 C-142.58185694 94.827427 -148.25111439 92.96548851 -154 90 C-154.56702637 89.71415039 -155.13405273 89.42830078 -155.71826172 89.13378906 C-169.1965372 82.26495275 -187.93223867 71.20328399 -193 56 C-193.66611433 50.11599006 -193.66611433 50.11599006 -191.953125 47.24609375 C-188.86592862 43.47789817 -187.19437292 42.14414846 -182.375 41.5625 C-176.97171609 41.65043771 -173.78839705 44.37429485 -170 48 C-168.94129179 49.2355996 -167.89989868 50.48621516 -166.875 51.75 C-153.766258 67.25560002 -130.74872075 77.13797658 -111 80 C-95.1031437 80.99757856 -79.8594681 81.11169083 -65 75 C-63.97261719 74.59265625 -62.94523438 74.1853125 -61.88671875 73.765625 C-55.76797251 71.15902217 -49.22431937 68.14772427 -44 64 C-44 63.01 -44 62.02 -44 61 C-46.57689883 59.29918635 -49.11228448 57.79235764 -51.8125 56.3125 C-71.54017483 45.10251708 -71.54017483 45.10251708 -74 39 C-72.96939453 38.60167969 -72.96939453 38.60167969 -71.91796875 38.1953125 C-71.01691406 37.84210938 -70.11585938 37.48890625 -69.1875 37.125 C-68.29417969 36.77695313 -67.40085937 36.42890625 -66.48046875 36.0703125 C-63.82288409 35.01167845 -63.82288409 35.01167845 -61 33 C-57.04032233 33.25167443 -54.5131505 35.73553925 -51.5 38.125 C-41.29019619 46.35983326 -41.29019619 46.35983326 -29.1875 50.4375 C-18.09345475 45.43430312 -11.16864863 29.8460315 -7 19 C-5.62800901 15.34661402 -4.30978983 11.67603566 -3 8 C-2.01011127 5.32940658 -1.00556429 2.66474538 0 0 Z " fill="#08417F" transform="translate(224,202)"/>
<path d="M0 0 C50.82 0 101.64 0 154 0 C154 2.64 154 5.28 154 8 C106.48 8 58.96 8 10 8 C10 16.58 10 25.16 10 34 C10.99 34 11.98 34 13 34 C13.11021484 33.10861328 13.11021484 33.10861328 13.22265625 32.19921875 C14.2775467 29.21477994 15.7794679 28.46685918 18.4375 26.8125 C19.24058594 26.30332031 20.04367188 25.79414063 20.87109375 25.26953125 C24.59663291 23.04787945 26.87850949 22.83745143 31.25 22.8125 C32.36890625 22.79832031 33.4878125 22.78414062 34.640625 22.76953125 C42.38053026 23.30052475 48.28492106 26.95183465 54 32 C61.08092249 41.01855923 61.99645756 50.76894049 61.26953125 61.984375 C60.36154372 68.77454265 56.60036842 74.90207332 51.625 79.5 C50.4403601 80.3666846 49.23177546 81.20172492 48 82 C47.44054687 82.40992188 46.88109375 82.81984375 46.3046875 83.2421875 C39.87137307 87.28041517 32.31069713 86.90131882 25 86 C19.48401519 84.21313168 14.70806233 81.55080376 11 77 C11 79.97 11 82.94 11 86 C7.37 86 3.74 86 0 86 C0 57.62 0 29.24 0 0 Z " fill="#0E447B" transform="translate(233,121)"/>
<path d="M0 0 C0.99 0.639375 1.98 1.27875 3 1.9375 C6.75112274 4.51639688 10.37880901 7.24274798 14 10 C12.55575365 13.23861303 10.74227753 15.61969163 8.375 18.25 C7.42753906 19.30960938 7.42753906 19.30960938 6.4609375 20.390625 C5.97882813 20.92171875 5.49671875 21.4528125 5 22 C2.01971913 20.03222223 -0.92640349 18.05303428 -3.82421875 15.96484375 C-16.41831587 7.04760445 -28.8465248 5.3449206 -43.92578125 7.3984375 C-54.15911706 9.9118884 -62.52234421 17.20414888 -68 26 C-68.50144531 26.79277344 -69.00289062 27.58554688 -69.51953125 28.40234375 C-75.82563604 39.46714504 -77.02197063 52.62311831 -73.68359375 64.89453125 C-73.45800781 65.58933594 -73.23242188 66.28414063 -73 67 C-72.74347656 67.80824219 -72.48695312 68.61648437 -72.22265625 69.44921875 C-67.99052528 81.31008366 -59.22619766 90.87184822 -47.859375 96.2734375 C-43.10506774 98.13121302 -38.49378643 98.19219285 -33.4375 98.1875 C-32.23565063 98.18737915 -32.23565063 98.18737915 -31.00952148 98.18725586 C-23.75762302 98.11785621 -16.90193913 97.30064638 -10 95 C-10 94.34 -10 93.68 -10 93 C-8.27578573 91.78514615 -6.49365116 90.65181296 -4.6875 89.5625 C-0.74681322 87.24923346 -0.74681322 87.24923346 2.60546875 84.21484375 C3.29576172 83.61349609 3.29576172 83.61349609 4 83 C7.24469123 83.22399249 9.03638599 84.58156939 11.3125 86.8125 C11.84488281 87.31394531 12.37726563 87.81539063 12.92578125 88.33203125 C14 90 14 90 13.89453125 91.96484375 C9.61270837 101.70645825 -4.50263792 107.26763536 -13.77734375 111.16796875 C-27.7687888 115.75992221 -45.09667945 113.86266277 -58.25 107.75 C-73.96600884 99.20537384 -83.09971047 86.30780968 -89.16796875 69.828125 C-93.91736177 53.32788633 -91.249069 36.57874162 -83.1953125 21.76953125 C-75.31905309 7.94990023 -62.9936873 -2.1087656 -47.75 -6.75 C-32.16263887 -10.34556366 -13.15581649 -9.72254336 0 0 Z " fill="#0A4079" transform="translate(148,126)"/>
<path d="M0 0 C7.67830061 5.36574157 12.94226714 11.88201893 14.875 21.0625 C14.875 25.3525 14.875 29.6425 14.875 34.0625 C-0.305 34.0625 -15.485 34.0625 -31.125 34.0625 C-27.47465164 43.86498249 -27.47465164 43.86498249 -20.125 50.0625 C-14.70825891 51.82046871 -8.72820297 52.34244095 -3.54296875 49.79296875 C-0.47351249 47.75492913 2.26890723 45.66859277 4.875 43.0625 C7.70168574 43.25094572 8.94419815 44.11673639 11.1875 45.875 C12.875 48.0625 12.875 48.0625 12.6640625 50.01171875 C10.68127292 55.1650085 5.16739672 58.18131323 0.375 60.4375 C-7.01998893 63.1440886 -16.76456472 63.79816953 -24.1875 60.8125 C-25.6415625 59.94625 -25.6415625 59.94625 -27.125 59.0625 C-28.135625 58.505625 -29.14625 57.94875 -30.1875 57.375 C-36.37204147 52.50631842 -42.12954387 44.70422936 -43.52441406 36.79882812 C-43.69593602 34.41356954 -43.7313474 32.07838802 -43.6875 29.6875 C-43.67323975 28.43404785 -43.67323975 28.43404785 -43.65869141 27.15527344 C-43.43415859 20.49197014 -42.13048172 15.49851091 -38.125 10.0625 C-37.67898438 9.41152344 -37.23296875 8.76054687 -36.7734375 8.08984375 C-28.4885411 -2.81011772 -12.41136643 -6.20568321 0 0 Z " fill="#EC1911" transform="translate(604.125,145.9375)"/>
<path d="M0 0 C111.21 0 222.42 0 337 0 C337 2.31 337 4.62 337 7 C225.79 7 114.58 7 0 7 C0 4.69 0 2.38 0 0 Z " fill="#EC211A" transform="translate(429,118)"/>
<path d="M0 0 C7.53746964 4.27558198 11.64821681 9.33243198 14.5 17.4375 C15.5 22.4375 15.5 22.4375 15.5 33.4375 C0.32 33.4375 -14.86 33.4375 -30.5 33.4375 C-27.01879676 44.2119676 -27.01879676 44.2119676 -18.5 50.4375 C-9.57016733 51.59046574 -2.78407986 50.62777224 4.4375 45.25 C5.118125 44.651875 5.79875 44.05375 6.5 43.4375 C8.99361571 44.64131448 11.18143083 45.89178722 13.5 47.4375 C13.5 50.4375 13.5 50.4375 12.06640625 51.90234375 C9.9157242 53.48286447 7.73993128 54.98590325 5.5 56.4375 C4.87222656 56.85902344 4.24445313 57.28054687 3.59765625 57.71484375 C-3.82553209 61.84537033 -13.27757288 61.66853036 -21.5 60.4375 C-29.9641925 57.64768531 -35.44304394 51.07103332 -39.59375 43.421875 C-42.81935578 35.5967943 -43.05313171 23.98783638 -40.375 15.9375 C-32.0221153 0.34544856 -17.48819874 -8.18735896 0 0 Z " fill="#0C427A" transform="translate(347.5,146.5625)"/>
<path d="M0 0 C4.71033861 -1.2675662 8.30219895 -1.4054498 13 0 C18.04045779 4.22618745 21.58240813 10.0717886 25.25048828 15.46777344 C27.99930751 19.44638816 30.97315082 23.24352109 33.9375 27.0625 C35.00371901 28.46008769 36.0688698 29.85849114 37.1328125 31.2578125 C40.00918781 35.02679081 42.94552098 38.74615308 45.92578125 42.43359375 C47 44 47 44 47 46 C50.78782039 42.36858871 54.02953637 38.56013788 57.1875 34.375 C57.62513672 33.80265625 58.06277344 33.2303125 58.51367188 32.640625 C60.42095754 30.1364026 62.25332534 27.62001199 64 25 C67.0390625 24.70703125 67.0390625 24.70703125 70.625 24.8125 C71.81351562 24.83957031 73.00203125 24.86664063 74.2265625 24.89453125 C75.14179688 24.92933594 76.05703125 24.96414062 77 25 C75.43256423 30.17454758 72.16556585 33.75126231 68.75 37.8125 C64.3452354 43.10328047 60.07912122 48.45280268 56 54 C57.33401058 56.84510221 58.84219069 59.26986754 60.7578125 61.7578125 C61.29768799 62.46156006 61.83756348 63.16530762 62.39379883 63.89038086 C62.96509521 64.62780518 63.5363916 65.36522949 64.125 66.125 C64.70596436 66.88111572 65.28692871 67.63723145 65.88549805 68.41625977 C69.74151009 73.42078004 73.66640517 78.35776127 77.70703125 83.21484375 C79 85 79 85 79 87 C74.05417962 87.97472372 69.91443524 88.243653 65 87 C60.75619471 83.52915572 58.00059097 78.63869487 55.21826172 73.98388672 C53.30607592 70.86997453 51.15295742 67.95120189 49 65 C45.21957799 66.26014067 44.55665294 67.6918995 42.3125 70.9375 C41.60222656 71.92234375 40.89195312 72.9071875 40.16015625 73.921875 C38.77024847 75.90243075 37.4199408 77.91169387 36.12109375 79.953125 C31.5000066 86.7062795 31.5000066 86.7062795 26.828125 87.62109375 C23.81783548 87.62462695 20.97466173 87.44619926 18 87 C18.61036016 83.64114398 19.80135086 81.64867421 21.9140625 78.98828125 C22.51089844 78.22966797 23.10773438 77.47105469 23.72265625 76.68945312 C24.35042969 75.90505859 24.97820312 75.12066406 25.625 74.3125 C26.22957031 73.54744141 26.83414062 72.78238281 27.45703125 71.99414062 C28.06160156 71.22908203 28.66617187 70.46402344 29.2890625 69.67578125 C30.19446777 68.52263428 30.19446777 68.52263428 31.11816406 67.34619141 C32.41130572 65.73395849 33.73850152 64.14863836 35.09277344 62.58740234 C35.75051758 61.80961426 36.40826172 61.03182617 37.0859375 60.23046875 C37.69228027 59.53719482 38.29862305 58.8439209 38.92333984 58.12963867 C40.30886173 55.97916729 40.30886173 55.97916729 39.28662109 53.37475586 C37.85065091 50.72434183 36.22498202 48.65439655 34.25 46.375 C29.3876965 40.57763814 24.9232627 34.53685862 20.46289062 28.42700195 C15.77271869 22.01477634 10.97416233 15.69446376 6.08691406 9.43115234 C5.57870117 8.77453613 5.07048828 8.11791992 4.546875 7.44140625 C4.10182617 6.87107666 3.65677734 6.30074707 3.19824219 5.71313477 C1.91924979 3.8845509 0.94985863 2.01638108 0 0 Z " fill="#EC1A13" transform="translate(399,120)"/>
<path d="M0 0 C0.70874268 0.00016113 1.41748535 0.00032227 2.14770508 0.00048828 C8.48256815 0.1367219 13.68628633 1.73541449 19.4375 4.375 C21.10159336 5.04806426 22.76758047 5.71652374 24.4375 6.375 C23.82295304 10.36955527 21.73103263 13.11966336 19.4375 16.375 C18.1175 16.045 16.7975 15.715 15.4375 15.375 C15.4375 14.715 15.4375 14.055 15.4375 13.375 C14.695 13.230625 13.9525 13.08625 13.1875 12.9375 C11.65246497 12.62351556 10.12017906 12.28462808 8.61328125 11.85546875 C5.99955541 11.27829051 3.55085203 11.16868738 0.875 11.125 C-0.07503906 11.09921875 -1.02507813 11.0734375 -2.00390625 11.046875 C-4.57801242 11.17173079 -4.57801242 11.17173079 -6.359375 12.66015625 C-8.24421796 15.34666943 -8.26019588 18.17057638 -8.5625 21.375 C-7.325 21.7875 -6.0875 22.2 -4.8125 22.625 C-3.99394531 22.90085938 -3.17539062 23.17671875 -2.33203125 23.4609375 C-0.41979974 24.09205481 1.50016374 24.70005008 3.42578125 25.2890625 C12.26183965 28.05103247 20.4160781 31.21518941 25.4375 39.375 C26.83346183 45.91007795 24.86037939 51.79738998 21.4375 57.375 C16.12349955 62.9842227 9.59154886 64.55564363 2.125 64.8125 C-6.52153695 64.60185351 -14.88375688 61.99920473 -21.5625 56.375 C-22.6875 54.5 -22.6875 54.5 -22.5625 52.375 C-20.625 49.125 -20.625 49.125 -18.5625 46.375 C-16.0828041 46.83420294 -14.45780179 47.44189052 -12.3125 48.8125 C-5.98982108 52.4049312 1.27238918 53.20361826 8.4375 52.375 C10.69541583 51.69468322 10.69541583 51.69468322 12.4375 50.375 C13.25620185 46.81293339 13.25620185 46.81293339 13.4375 43.375 C9.20019067 40.28395368 5.72004935 38.66151565 0.5625 37.375 C-14.55058487 33.25035408 -14.55058487 33.25035408 -18.69921875 26.62109375 C-20.63900088 21.5741493 -20.68262926 16.62125514 -19.5625 11.375 C-14.70656869 3.274164 -9.30050816 -0.01965588 0 0 Z " fill="#EC1C15" transform="translate(742.5625,143.625)"/>
<path d="M0 0 C3.96 0 7.92 0 12 0 C14.4258861 5.37160493 16.73873302 10.75674205 18.875 16.25 C20.49371868 20.20686788 22.25334806 24.09825551 24 28 C24.71402433 29.60525415 25.42756717 31.21072255 26.140625 32.81640625 C26.48867187 33.59951172 26.83671875 34.38261719 27.1953125 35.18945312 C28.796875 38.79296875 30.3984375 42.39648438 32 46 C36.55241432 36.31853221 40.83714494 26.68969761 44.14453125 16.51171875 C49.13207547 1.86792453 49.13207547 1.86792453 51 0 C52.85287502 -0.07226502 54.70833878 -0.0838122 56.5625 -0.0625 C57.57441406 -0.05347656 58.58632812 -0.04445312 59.62890625 -0.03515625 C60.41136719 -0.02355469 61.19382813 -0.01195312 62 0 C61.3231459 3.95959649 60.02962452 6.94579965 58.16796875 10.5078125 C56.74408645 13.54606303 55.66190663 16.64260203 54.5625 19.8125 C52.73497041 25.06107583 50.67487738 30.06628802 48.31640625 35.09375 C46.77284479 38.50149399 45.37638968 41.95998253 44 45.4375 C43.74468506 46.08154785 43.48937012 46.7255957 43.22631836 47.38916016 C42.97374268 48.02644043 42.72116699 48.6637207 42.4609375 49.3203125 C37.94900232 60.68459844 32.99601555 71.84264518 28 83 C24.37 83 20.74 83 17 83 C17.88145117 78.59274413 18.90124119 75.90324428 20.9375 72 C25.19773329 64.8244568 25.19773329 64.8244568 25 57 C23.63669329 53.48129569 22.11794839 50.02793559 20.625 46.5625 C20.02558594 45.15000977 20.02558594 45.15000977 19.4140625 43.70898438 C17.51125965 39.27432708 15.55504771 35.10310604 13 31 C12.33928566 29.45226365 11.71389361 27.88896299 11.125 26.3125 C9.38660378 21.83662927 7.34882165 17.59869044 5.16796875 13.32421875 C2.97814707 8.96654685 1.18786124 4.75144497 0 0 Z " fill="#0B427A" transform="translate(164,145)"/>
<path d="M0 0 C5.48402637 2.52705613 9.10011349 6.15197989 11.71484375 11.6484375 C13.79777276 17.88808887 13.47808557 25.00839472 11.10546875 31.12890625 C8.43565546 36.40130731 3.89045716 40.67391204 -1.39453125 43.31640625 C-8.61338724 44.20609365 -14.53334313 43.95191402 -20.4140625 39.41015625 C-25.44412783 34.09237515 -28.66788932 27.41685687 -29.01953125 20.06640625 C-28.48591045 12.81612369 -25.62418089 8.16888374 -20.26953125 3.37890625 C-14.27865567 -1.58334729 -7.55732624 -2.15747487 0 0 Z " fill="#F8F9FB" transform="translate(271.39453125,154.68359375)"/>
<path d="M0 0 C5.63224459 3.13914809 9.85382151 6.30554045 11.84375 12.6484375 C13.250304 19.7440001 13.57799142 26.77274702 9.53125 32.98046875 C6.04788621 37.64254655 1.64345666 41.35949106 -4.234375 42.2265625 C-11.04025142 42.39184807 -15.60385775 41.50642519 -20.71875 36.85546875 C-26.37334217 30.41120785 -27.19883864 24.81584579 -27.12109375 16.4453125 C-26.40942923 10.09560677 -23.51941499 6.39282336 -18.890625 2.19921875 C-12.99291834 -2.11617637 -6.74478042 -2.8393975 0 0 Z " fill="#FEF9F9" transform="translate(526.71875,155.14453125)"/>
<path d="M0 0 C3.63 0 7.26 0 11 0 C11 5.94 11 11.88 11 18 C17.27 18 23.54 18 30 18 C30 21.3 30 24.6 30 28 C23.73 28 17.46 28 11 28 C11.0740234 33.19695328 11.15686898 38.3921921 11.26245117 43.58837891 C11.29568069 45.35554083 11.32371882 47.12280839 11.34643555 48.89013672 C11.38001831 51.43242351 11.43233451 53.97374408 11.48828125 56.515625 C11.49467117 57.30430969 11.5010611 58.09299438 11.50764465 58.90557861 C11.5951483 62.17894066 11.78418122 64.60330159 13.36328125 67.50585938 C14.97015956 69.25356331 14.97015956 69.25356331 17.69921875 69.390625 C18.68535156 69.34421875 19.67148437 69.2978125 20.6875 69.25 C21.68136719 69.21390625 22.67523437 69.1778125 23.69921875 69.140625 C24.45847656 69.09421875 25.21773437 69.0478125 26 69 C26.33 68.34 26.66 67.68 27 67 C27.99 67 28.98 67 30 67 C30 70.63 30 74.26 30 78 C24.00373589 81.19800753 18.75221011 81.73549036 12 81 C6.70450543 79.23483514 4.24278522 76.35459729 1 72 C-0.14315747 69.71368506 -0.12112732 68.45652594 -0.11352539 65.91748047 C-0.11341209 64.65639969 -0.11341209 64.65639969 -0.11329651 63.36984253 C-0.10813522 62.46146637 -0.10297394 61.55309021 -0.09765625 60.6171875 C-0.0962413 59.68778351 -0.09482635 58.75837952 -0.09336853 57.80081177 C-0.08776053 54.82550876 -0.07520668 51.85028036 -0.0625 48.875 C-0.05748603 46.86067817 -0.05292295 44.84635516 -0.04882812 42.83203125 C-0.0377885 37.88799198 -0.02051849 32.94400865 0 28 C-2.64 28 -5.28 28 -8 28 C-8 24.7 -8 21.4 -8 18 C-5.36 18 -2.72 18 0 18 C0 12.06 0 6.12 0 0 Z " fill="#EC150D" transform="translate(682,127)"/>
<path d="M0 0 C3.96 0 7.92 0 12 0 C12.33 2.97 12.66 5.94 13 9 C13.53109375 8.51789063 14.0621875 8.03578125 14.609375 7.5390625 C15.31578125 6.90742188 16.0221875 6.27578125 16.75 5.625 C17.44609375 4.99851563 18.1421875 4.37203125 18.859375 3.7265625 C24.45989099 -0.790642 28.95849436 -0.1676549 36 0 C36 3.96 36 7.92 36 12 C34.30875 12.2475 32.6175 12.495 30.875 12.75 C25.19102807 13.81392295 21.10438469 15.11005481 17.56640625 19.96875 C14.02975238 25.49915492 12.82930982 29.26646049 12.68359375 35.8515625 C12.66281265 36.62559418 12.64203156 37.39962585 12.62062073 38.19711304 C12.55516552 40.67298392 12.49625913 43.14896202 12.4375 45.625 C12.39431093 47.30209448 12.35069652 48.97917807 12.30664062 50.65625 C12.19948829 54.77072308 12.09820955 58.88530414 12 63 C8.04 63 4.08 63 0 63 C0 42.21 0 21.42 0 0 Z " fill="#EC1B13" transform="translate(632,144)"/>
<path d="M0 0 C0 3.3 0 6.6 0 10 C-0.79664063 10.15855469 -1.59328125 10.31710938 -2.4140625 10.48046875 C-11.24300715 12.40993321 -11.24300715 12.40993321 -18 18 C-21.41932999 24.28537035 -23.11177373 29.91208066 -23.31640625 37.07421875 C-23.33718735 37.7580513 -23.35796844 38.44188385 -23.37937927 39.1464386 C-23.44466154 41.3266921 -23.50366017 43.50706405 -23.5625 45.6875 C-23.60570553 47.16732986 -23.64932047 48.64714783 -23.69335938 50.12695312 C-23.80032083 53.75117622 -23.90164823 57.37553189 -24 61 C-27.3 61 -30.6 61 -34 61 C-34 41.2 -34 21.4 -34 1 C-30.7 1 -27.4 1 -24 1 C-23.67 4.63 -23.34 8.26 -23 12 C-22.525625 11.13375 -22.05125 10.2675 -21.5625 9.375 C-16.10460981 1.33179341 -9.33603501 -0.78896071 0 0 Z " fill="#063D77" transform="translate(411,145)"/>
<path d="M0 0 C5.29156038 1.77399055 9.0256173 5.36346226 12 10 C12.495 14.455 12.495 14.455 13 19 C1.12 19 -10.76 19 -23 19 C-21.80505128 11.83030766 -19.68864887 7.438542 -14.3125 2.5625 C-9.62845812 -0.60239316 -5.55762991 -0.59248007 0 0 Z " fill="#F1F4F7" transform="translate(339,153)"/>
<path d="M0 0 C4.55147938 2.08459198 7.28605328 4.90676909 10 9.0625 C11 12 11 12 11 17 C-0.22 17 -11.44 17 -23 17 C-21.87245673 9.10719708 -21.87245673 9.10719708 -18.0625 5.125 C-17.35222656 4.36445313 -16.64195312 3.60390625 -15.91015625 2.8203125 C-11.5099165 -1.37296301 -5.73834818 -0.75410082 0 0 Z " fill="#FDF4F4" transform="translate(596,154)"/>
<path d="M0 0 C0.66 0.33 1.32 0.66 2 1 C-4.6 7.6 -11.2 14.2 -18 21 C-18.66 20.67 -19.32 20.34 -20 20 C-7.23404255 5.85106383 -7.23404255 5.85106383 0 0 Z " fill="#2B5A8D" transform="translate(55,96)"/>
<path d="M0 0 C0.66 0.33 1.32 0.66 2 1 C-2.62 5.62 -7.24 10.24 -12 15 C-12 11.11566834 -10.82920314 10.32394504 -8.25 7.5 C-7.55390625 6.7265625 -6.8578125 5.953125 -6.140625 5.15625 C-4.19891408 3.20036601 -2.25069252 1.58156772 0 0 Z " fill="#2F5D8F" transform="translate(81,129)"/>
<path d="M0 0 C0.66 0 1.32 0 2 0 C2 4.62 2 9.24 2 14 C1.67 14 1.34 14 1 14 C0.67 12.02 0.34 10.04 0 8 C-0.99 9.32 -1.98 10.64 -3 12 C-2.49202991 7.6822542 -1.80317221 3.96697886 0 0 Z " fill="#5081B6" transform="translate(224,202)"/>
<path d="M0 0 C0.66 0.33 1.32 0.66 2 1 C-2.29 5.29 -6.58 9.58 -11 14 C-11 9.40845608 -8.09282279 7.18698368 -5 4 C-3.3719908 2.61973133 -1.71956118 1.26438322 0 0 Z " fill="#C7D3DE" transform="translate(92,138)"/>
<path d="M0 0 C3.96 0 7.92 0 12 0 C12.33 1.32 12.66 2.64 13 4 C12.34 3.67 11.68 3.34 11 3 C9.46331135 2.77532169 7.92031946 2.59203195 6.375 2.4375 C5.55773437 2.35371094 4.74046875 2.26992187 3.8984375 2.18359375 C3.27195313 2.12300781 2.64546875 2.06242188 2 2 C1.67 2.66 1.34 3.32 1 4 C0.67 2.68 0.34 1.36 0 0 Z " fill="#4A719C" transform="translate(164,145)"/>
<path d="M0 0 C0.66 0.33 1.32 0.66 2 1 C-1.63 4.63 -5.26 8.26 -9 12 C-9 8.47601214 -8.44884893 7.98495633 -6.1875 5.4375 C-5.40439453 4.53837891 -5.40439453 4.53837891 -4.60546875 3.62109375 C-3 2 -3 2 0 0 Z " fill="#ED3B35" transform="translate(575,147)"/>
<path d="M0 0 C3.63 0 7.26 0 11 0 C10.67 1.65 10.34 3.3 10 5 C9.67 4.01 9.34 3.02 9 2 C5.7 2.33 2.4 2.66 -1 3 C-0.67 2.01 -0.34 1.02 0 0 Z " fill="#51779F" transform="translate(215,145)"/>
<path d="M0 0 C0.66 0.33 1.32 0.66 2 1 C-1.63 4.63 -5.26 8.26 -9 12 C-9 7.8407692 -6.75316432 5.85455565 -4 3 C-1.6875 1.125 -1.6875 1.125 0 0 Z " fill="#28588C" transform="translate(128,23)"/>
<path d="M0 0 C0.66 0.33 1.32 0.66 2 1 C-1.3 4.3 -4.6 7.6 -8 11 C-8 7.0234755 -6.61988497 5.9109833 -4 3 C-1.75 1.1875 -1.75 1.1875 0 0 Z " fill="#BCCAD9" transform="translate(399,157)"/>
<path d="M0 0 C0.66 0.33 1.32 0.66 2 1 C-1.3 4.3 -4.6 7.6 -8 11 C-8 8 -8 8 -5.6875 5.5 C-4.800625 4.675 -3.91375 3.85 -3 3 C-2.401875 2.401875 -1.80375 1.80375 -1.1875 1.1875 C-0.795625 0.795625 -0.40375 0.40375 0 0 Z " fill="#356190" transform="translate(320,147)"/>
<path d="M0 0 C0.66 0.33 1.32 0.66 2 1 C-0.97 3.97 -3.94 6.94 -7 10 C-7.33 9.34 -7.66 8.68 -8 8 C-5.58443874 4.80800833 -3.31996462 2.25283313 0 0 Z " fill="#34608F" transform="translate(397,147)"/>
<path d="M0 0 C0.66 0.33 1.32 0.66 2 1 C-0.97 3.97 -3.94 6.94 -7 10 C-7 7 -7 7 -4.625 4.4375 C-3.75875 3.633125 -2.8925 2.82875 -2 2 C-1.34 1.34 -0.68 0.68 0 0 Z " fill="#F9CAC9" transform="translate(510,156)"/>
<path d="M0 0 C0.66 0.33 1.32 0.66 2 1 C-0.31 3.64 -2.62 6.28 -5 9 C-5.33 8.34 -5.66 7.68 -6 7 C-4.02 4.69 -2.04 2.38 0 0 Z " fill="#CCD6E1" transform="translate(325,155)"/>
<path d="M0 0 C-2.05233685 2.2477975 -3.00667261 3.0022242 -6 4 C-6 3.34 -6 2.68 -6 2 C-6.66 1.67 -7.32 1.34 -8 1 C-5.29120665 -0.35439668 -2.99066732 -0.06501451 0 0 Z " fill="#305D8B" transform="translate(298,263)"/>
</svg>
